<?xml version="1.0" encoding="UTF-8"?>
<svg id="Layer_2" data-name="Layer 2" xmlns="http://www.w3.org/2000/svg" viewBox="0 0 2176.77 361.22">
  <defs>
    <style>
      .cls-1 {
        fill: #8eb7f5;
      }

      .cls-2 {
        fill: #fff;
      }

      .cls-3 {
        fill: #3266d3;
      }
    </style>
  </defs>
  <g id="Layer_1-2" data-name="Layer 1">
    <g>
      <g>
        <path class="cls-2" d="M521.77,170.65c-10.87-4.42-23.98-8.02-38.96-10.67-14.46-2.58-25.69-4.98-33.37-7.12-7.3-2.03-13.15-5.06-17.41-9.03-4-3.7-5.94-8.67-5.94-15.15,0-9.4,3.45-16.48,10.52-21.61,7.34-5.31,17.39-8.02,29.9-8.02s23.6,3.37,31.87,10.03c8.3,6.68,12.93,15.25,14.15,26.18l.33,3.03h43.57l-.16-3.57c-.68-14.3-4.96-27.23-12.71-38.42-7.71-11.12-18.4-19.98-31.76-26.31-13.29-6.3-28.52-9.5-45.29-9.5s-31.08,2.97-43.79,8.81c-12.86,5.93-23.01,14.37-30.19,25.08-7.22,10.79-10.88,23.2-10.88,36.9,0,14.86,3.59,27.12,10.67,36.41,6.99,9.18,16.17,16.09,27.29,20.58,10.79,4.33,23.84,7.86,38.78,10.48,14.47,2.6,25.79,5.1,33.64,7.43,7.52,2.25,13.5,5.45,17.75,9.51,4.02,3.84,5.98,8.98,5.98,15.69,0,9.59-3.74,16.86-11.46,22.23-7.99,5.57-18.72,8.39-31.9,8.39-15.04,0-27.35-3.86-36.6-11.49-9.25-7.63-14.26-17.5-15.29-30.19l-.25-3.08-43.57-.77.06,3.53c.24,15.62,4.45,29.72,12.51,41.89,8.03,12.13,19.34,21.72,33.59,28.5,14.12,6.74,30.68,10.15,49.22,10.15,16.79,0,32.03-3.13,45.28-9.31,13.35-6.22,23.96-15.04,31.48-26.21,7.55-11.21,11.37-24.08,11.37-38.22s-3.66-26.71-10.88-35.81c-7.1-8.92-16.36-15.77-27.54-20.33"/>
        <path class="cls-2" d="M723.66,176.93c8.67-3.57,15.77-8.64,21.16-15.17,7.79-9.43,11.75-21.55,11.75-36.02,0-19.8-7.44-35.46-22.13-46.55-14.38-10.88-34.72-16.39-60.43-16.39h-87.48v235.79h90.42c27.9,0,49.78-5.96,65.04-17.71,15.54-11.98,23.41-28.63,23.41-49.49,0-27.94-14.02-46.21-41.73-54.45M702.73,151.89c-6.42,5.34-15.75,8.05-27.76,8.05h-44.01v-58.93h44.01c12.01,0,21.36,2.66,27.78,7.9,6.31,5.15,9.37,12.14,9.37,21.4s-3.07,16.34-9.4,21.58M719.97,229.42c0,9.65-3.46,16.94-10.57,22.29-7.32,5.51-18.14,8.31-32.13,8.31h-46.3v-62.19h46.3c13.78,0,24.54,2.85,31.96,8.46,7.23,5.47,10.75,13.04,10.75,23.13"/>
        <path class="cls-2" d="M957.89,181.33c8.43-12.08,12.7-26.27,12.7-42.19s-3.51-28.71-10.47-40.19c-6.95-11.53-16.83-20.55-29.35-26.81-12.39-6.21-27-9.36-43.4-9.36h-93.68v235.79h44.44v-83.08h45.55l43.51,83.08h49.6l-49.26-92.87c12.45-5.16,22.66-13.34,30.36-24.37M925.18,139.15c0,11.31-3.54,20.06-10.83,26.75-7.27,6.68-17.34,10.07-29.92,10.07h-46.31v-73.66h46.31c12.57,0,22.64,3.38,29.92,10.06,7.29,6.71,10.83,15.46,10.83,26.78"/>
        <polygon class="cls-2" points="1042.68 258.4 1042.68 198.81 1134.91 198.81 1134.91 159.62 1042.68 159.62 1042.68 102.98 1154.54 102.98 1154.54 62.79 998.24 62.79 998.24 298.58 1158.47 298.58 1158.47 258.4 1042.68 258.4"/>
        <path class="cls-2" d="M1226.36,155.58c5.66,4.71,13,7.06,22,7.06s15.65-1.95,20.86-5.84c5.21-3.9,7.82-9.24,7.82-16.01,0-4.86-1.39-8.7-4.17-11.53-2.79-2.83-6.35-4.93-10.7-6.3-4.35-1.37-9.91-2.6-16.69-3.72-7.08-1.21-13-2.71-17.75-4.47-4.75-1.77-8.7-4.5-11.84-8.19-3.13-3.69-4.7-8.72-4.7-15.1,0-5.86,1.46-11.02,4.4-15.47,2.94-4.45,7.11-7.89,12.52-10.32,5.41-2.43,11.66-3.65,18.73-3.65,10.52,0,19.09,2.76,25.72,8.27,6.63,5.51,10.35,12.82,11.15,21.92l-8.04.15c-.91-6.98-3.95-12.54-9.1-16.69-5.16-4.14-11.73-6.22-19.72-6.22-8.4,0-15.07,1.9-20.03,5.69-4.96,3.79-7.44,9.08-7.44,15.86,0,4.75,1.31,8.49,3.94,11.23,2.63,2.74,5.95,4.71,9.94,5.92,3.99,1.22,9.48,2.43,16.46,3.65,7.08,1.11,13.12,2.6,18.13,4.47,5.01,1.87,9.15,4.73,12.44,8.57,3.29,3.84,4.93,8.95,4.93,15.32,0,5.87-1.54,11.08-4.63,15.63-3.08,4.55-7.41,8.09-12.97,10.61-5.57,2.54-12.04,3.79-19.42,3.79s-14.43-1.39-20.26-4.17c-5.82-2.78-10.36-6.73-13.65-11.84-3.29-5.11-5.08-11-5.39-17.68h8.2c.51,7.99,3.59,14.35,9.25,19.04"/>
        <path class="cls-2" d="M1415.75,125.31v44h-7.89v-43.54c0-8.8-1.87-15.53-5.62-20.18-3.74-4.66-9-6.98-15.78-6.98-7.18,0-12.92,2.6-17.22,7.81-4.3,5.21-6.55,12.22-6.75,21.02v41.87h-7.74v-43.54c0-8.8-1.89-15.53-5.69-20.18-3.79-4.66-9.13-6.98-16-6.98-7.29,0-13.1,2.89-17.45,8.65-4.35,5.76-6.52,13.4-6.52,22.91v39.14h-7.58v-76.92h6.67l1.22,16.54c2.02-5.26,5.16-9.48,9.41-12.67,4.25-3.18,9.46-4.78,15.63-4.78s11.48,1.65,15.93,4.94c4.45,3.28,7.58,8.07,9.41,14.33,2.32-5.97,5.81-10.67,10.47-14.11,4.65-3.44,10.36-5.16,17.14-5.16,8.5,0,15.35,2.83,20.56,8.5,5.22,5.66,7.82,14.11,7.82,25.34"/>
        <path class="cls-2" d="M1503.82,169.31h-4.55c-4.45,0-7.72-1.11-9.79-3.33-2.07-2.23-3.01-5.37-2.8-9.41v-3.18c-2.33,5.16-5.97,9.25-10.93,12.28-4.96,3.04-11.12,4.55-18.51,4.55-8.29,0-14.92-1.97-19.88-5.92-4.96-3.94-7.43-9.3-7.43-16.08,0-7.28,2.6-12.92,7.81-16.92,5.22-3.99,12.73-5.99,22.54-5.99h26.1v-6.68c0-6.37-2-11.35-5.99-14.94-4-3.59-9.59-5.39-16.77-5.39-6.37,0-11.55,1.42-15.54,4.25-4,2.83-6.5,6.62-7.51,11.38h-7.74c1.01-6.98,4.25-12.47,9.71-16.46,5.46-4,12.6-6,21.4-6,9.6,0,17.04,2.38,22.3,7.13,5.26,4.76,7.89,11.53,7.89,20.33v35.81c0,2.33.61,4.14,1.82,5.46,1.22,1.31,2.89,1.98,5.01,1.98h2.88v7.13ZM1459.67,131.99c-7.08,0-12.5,1.37-16.23,4.09-3.74,2.73-5.62,6.62-5.62,11.68,0,4.76,1.79,8.57,5.39,11.46,3.59,2.88,8.42,4.32,14.49,4.32,8.9,0,15.9-2.36,21.01-7.06s7.67-10.8,7.67-18.28v-6.22h-26.7Z"/>
        <rect class="cls-2" x="1514.18" y="63.11" width="7.73" height="106.2"/>
        <rect class="cls-2" x="1540.14" y="63.11" width="7.73" height="106.2"/>
        <path class="cls-2" d="M1663.68,70.24c5.76,4.75,8.65,11.37,8.65,19.87,0,6.47-1.74,11.84-5.23,16.09-3.49,4.25-8.48,7.08-14.95,8.5,7.89,1.31,14.03,4.07,18.44,8.27,4.4,4.2,6.59,10.03,6.59,17.52,0,9-3.21,16.06-9.63,21.17-6.42,5.11-15.7,7.66-27.84,7.66h-36.87V63.1h36.26c10.62,0,18.81,2.38,24.58,7.14M1639.4,111.35c7.89,0,13.99-1.82,18.29-5.46,4.3-3.64,6.45-8.65,6.45-15.02s-2.15-11.35-6.45-14.94c-4.3-3.6-10.4-5.39-18.29-5.39h-28.37v40.81h28.37ZM1639.7,161.87c9.41,0,16.59-1.92,21.55-5.76,4.95-3.84,7.44-9.16,7.44-15.93s-2.53-12.29-7.59-15.93c-5.05-3.65-12.19-5.46-21.39-5.46h-28.67v43.08h28.67Z"/>
        <path class="cls-2" d="M1757.94,169.31h-6.82l-1.06-16.23c-2.32,5.25-5.76,9.43-10.32,12.51-4.55,3.09-10.12,4.63-16.69,4.63-8.9,0-16.06-2.9-21.47-8.72-5.41-5.82-8.11-14.49-8.11-26.01v-43.09h7.74v42.63c0,9.1,2.03,16.05,6.07,20.86,4.04,4.81,9.71,7.21,16.99,7.21,7.99,0,14.31-2.96,18.96-8.88,4.65-5.92,6.98-13.94,6.98-24.05v-37.78h7.73v76.92Z"/>
        <path class="cls-2" d="M1788.33,158.77c4.45,3.19,10.32,4.78,17.6,4.78,6.38,0,11.63-1.37,15.77-4.1,4.15-2.73,6.23-6.32,6.23-10.76,0-3.55-.99-6.3-2.96-8.27-1.98-1.97-4.53-3.39-7.67-4.25-3.13-.86-7.33-1.69-12.59-2.5-6.47-.91-11.73-1.95-15.78-3.11-4.05-1.16-7.38-3.11-10.01-5.84-2.63-2.74-3.95-6.53-3.95-11.38,0-4.24,1.24-8.04,3.72-11.38,2.48-3.33,5.87-5.94,10.17-7.81,4.3-1.87,9.18-2.8,14.64-2.8,8.81,0,15.96,1.95,21.47,5.84,5.51,3.89,8.62,9.53,9.33,16.91h-7.74c-.7-4.96-3.11-8.88-7.2-11.75-4.09-2.89-9.23-4.32-15.4-4.32s-11.53,1.37-15.48,4.09c-3.94,2.73-5.92,6.27-5.92,10.62,0,3.34.99,5.92,2.96,7.74,1.98,1.82,4.38,3.09,7.21,3.79,2.83.71,6.93,1.41,12.29,2.13,6.57.91,11.98,2.04,16.24,3.41,4.25,1.37,7.71,3.51,10.39,6.45,2.68,2.93,4.02,6.93,4.02,11.99,0,6.68-2.86,12.01-8.57,16-5.71,4-12.77,5.99-21.16,5.99-9.71,0-17.5-2.15-23.37-6.45-5.86-4.29-8.9-10.34-9.1-18.13h7.73c.3,5.57,2.68,9.94,7.14,13.12"/>
        <path class="cls-2" d="M1860.29,69.62c0,1.62-.51,2.94-1.52,3.95-1.01,1.02-2.32,1.52-3.94,1.52-1.52,0-2.81-.5-3.88-1.52-1.05-1.01-1.59-2.33-1.59-3.95s.53-2.92,1.59-3.94c1.06-1.01,2.36-1.52,3.88-1.52,1.62,0,2.93.51,3.94,1.52,1.01,1.02,1.52,2.32,1.52,3.94M1858.77,169.31h-7.73v-76.92h7.73v76.92Z"/>
        <path class="cls-2" d="M1942.83,126.22v43.09h-7.74v-42.79c0-9-2.1-15.91-6.3-20.7-4.2-4.81-10.04-7.21-17.53-7.21-8.19,0-14.67,2.96-19.42,8.88-4.75,5.92-7.13,13.88-7.13,23.89v37.94h-7.73v-76.92h6.67l1.22,16.39c2.33-5.26,5.82-9.46,10.47-12.6,4.65-3.14,10.36-4.71,17.14-4.71,9.21,0,16.56,2.89,22.07,8.66,5.51,5.76,8.27,14.46,8.27,26.09"/>
        <path class="cls-2" d="M1974.51,96.41c5.42-3.29,11.55-4.94,18.44-4.94s12.79,1.45,18.05,4.32c5.25,2.89,9.43,7.06,12.51,12.52,3.09,5.46,4.73,11.93,4.93,19.42,0,1.41-.05,2.48-.15,3.19h-62.66c-.1.4-.15,1-.15,1.81.1,5.97,1.37,11.26,3.79,15.86s5.76,8.19,10.01,10.77c4.25,2.58,9.05,3.87,14.42,3.87,6.27,0,11.73-1.75,16.38-5.24,4.66-3.49,7.74-8.22,9.26-14.18h7.89c-1.82,7.89-5.69,14.26-11.61,19.11-5.92,4.85-13.02,7.28-21.32,7.28-7.18,0-13.58-1.66-19.19-5-5.62-3.34-9.96-7.99-13.05-13.96-3.08-5.97-4.63-12.79-4.63-20.48s1.49-14.52,4.48-20.48c2.98-5.97,7.18-10.59,12.59-13.88M2011.99,105.13c-4.9-4.55-11.2-6.82-18.89-6.82-4.65,0-8.95,1.09-12.89,3.26-3.95,2.17-7.18,5.23-9.71,9.18-2.53,3.95-4,8.49-4.41,13.66h54.32c-.71-8.29-3.51-14.72-8.43-19.27"/>
        <path class="cls-2" d="M2056.11,158.77c4.45,3.19,10.32,4.78,17.6,4.78,6.38,0,11.63-1.37,15.78-4.1,4.14-2.73,6.22-6.32,6.22-10.76,0-3.55-.99-6.3-2.96-8.27-1.98-1.97-4.53-3.39-7.67-4.25-3.13-.86-7.33-1.69-12.6-2.5-6.47-.91-11.73-1.95-15.78-3.11-4.05-1.16-7.38-3.11-10.01-5.84-2.63-2.74-3.95-6.53-3.95-11.38,0-4.24,1.24-8.04,3.72-11.38,2.48-3.33,5.87-5.94,10.17-7.81,4.3-1.87,9.18-2.8,14.64-2.8,8.81,0,15.95,1.95,21.47,5.84,5.51,3.89,8.62,9.53,9.33,16.91h-7.73c-.71-4.96-3.11-8.88-7.21-11.75-4.09-2.89-9.23-4.32-15.4-4.32s-11.53,1.37-15.48,4.09c-3.94,2.73-5.92,6.27-5.92,10.62,0,3.34.99,5.92,2.96,7.74,1.98,1.82,4.38,3.09,7.2,3.79,2.84.71,6.93,1.41,12.29,2.13,6.57.91,11.98,2.04,16.24,3.41,4.25,1.37,7.71,3.51,10.39,6.45,2.68,2.93,4.02,6.93,4.02,11.99,0,6.68-2.86,12.01-8.57,16-5.71,4-12.77,5.99-21.16,5.99-9.71,0-17.5-2.15-23.37-6.45-5.86-4.29-8.9-10.34-9.1-18.13h7.73c.3,5.57,2.68,9.94,7.14,13.12"/>
        <path class="cls-2" d="M2129.43,158.77c4.45,3.19,10.32,4.78,17.6,4.78,6.38,0,11.63-1.37,15.77-4.1,4.15-2.73,6.23-6.32,6.23-10.76,0-3.55-.99-6.3-2.96-8.27-1.98-1.97-4.53-3.39-7.67-4.25-3.13-.86-7.33-1.69-12.59-2.5-6.47-.91-11.73-1.95-15.78-3.11-4.05-1.16-7.38-3.11-10.01-5.84-2.63-2.74-3.95-6.53-3.95-11.38,0-4.24,1.24-8.04,3.72-11.38,2.48-3.33,5.87-5.94,10.17-7.81,4.3-1.87,9.18-2.8,14.64-2.8,8.81,0,15.95,1.95,21.47,5.84,5.51,3.89,8.62,9.53,9.33,16.91h-7.74c-.7-4.96-3.11-8.88-7.2-11.75-4.09-2.89-9.23-4.32-15.4-4.32s-11.53,1.37-15.48,4.09c-3.94,2.73-5.92,6.27-5.92,10.62,0,3.34.99,5.92,2.96,7.74,1.98,1.82,4.38,3.09,7.2,3.79,2.84.71,6.93,1.41,12.29,2.13,6.57.91,11.98,2.04,16.24,3.41,4.25,1.37,7.71,3.51,10.39,6.45,2.68,2.93,4.02,6.93,4.02,11.99,0,6.68-2.86,12.01-8.57,16-5.71,4-12.77,5.99-21.16,5.99-9.71,0-17.5-2.15-23.37-6.45-5.86-4.29-8.9-10.34-9.1-18.13h7.73c.3,5.57,2.68,9.94,7.14,13.12"/>
        <path class="cls-2" d="M1276.27,198.03c6.07,5.61,9.11,13.12,9.11,22.53,0,7.79-2.25,14.31-6.75,19.57-4.5,5.26-10.55,8.54-18.13,9.86l25.18,45.82h-9.25l-24.12-44.3h-31.41v44.3h-8.19v-106.21h39.29c10.12,0,18.21,2.81,24.27,8.42M1251.39,243.93c7.79,0,14.01-2.13,18.66-6.38,4.65-4.25,6.98-9.91,6.98-16.99s-2.3-12.74-6.91-16.99c-4.6-4.25-10.79-6.38-18.58-6.38h-30.65v46.74h30.5Z"/>
        <path class="cls-2" d="M1311.44,222.91c5.42-3.28,11.55-4.93,18.44-4.93s12.79,1.45,18.05,4.32c5.25,2.89,9.43,7.06,12.51,12.52,3.09,5.46,4.73,11.93,4.93,19.42,0,1.41-.05,2.48-.15,3.19h-62.66c-.11.4-.16,1-.16,1.81.1,5.97,1.37,11.26,3.79,15.86s5.76,8.19,10.01,10.77c4.25,2.58,9.06,3.87,14.42,3.87,6.27,0,11.73-1.75,16.38-5.24,4.66-3.49,7.74-8.22,9.26-14.18h7.89c-1.82,7.89-5.69,14.26-11.61,19.11-5.92,4.85-13.02,7.28-21.32,7.28-7.18,0-13.58-1.66-19.19-5-5.61-3.34-9.96-7.99-13.05-13.96-3.08-5.97-4.63-12.79-4.63-20.48s1.49-14.52,4.48-20.48c2.98-5.97,7.18-10.59,12.59-13.88M1348.91,231.64c-4.9-4.55-11.2-6.82-18.89-6.82-4.65,0-8.95,1.09-12.89,3.26-3.95,2.17-7.18,5.23-9.71,9.18-2.53,3.95-4,8.49-4.41,13.66h54.32c-.71-8.29-3.51-14.72-8.43-19.27"/>
        <path class="cls-2" d="M1451.9,295.81h-4.55c-4.45,0-7.72-1.11-9.79-3.33-2.07-2.23-3.01-5.37-2.8-9.41v-3.18c-2.33,5.16-5.97,9.25-10.93,12.28-4.96,3.04-11.12,4.55-18.51,4.55-8.29,0-14.92-1.97-19.88-5.92-4.96-3.94-7.44-9.3-7.44-16.08,0-7.28,2.6-12.92,7.81-16.92,5.22-3.99,12.73-5.99,22.54-5.99h26.1v-6.68c0-6.37-2-11.35-5.99-14.94-4-3.59-9.59-5.39-16.77-5.39-6.37,0-11.55,1.42-15.54,4.25-4,2.83-6.5,6.62-7.51,11.38h-7.74c1.01-6.98,4.25-12.47,9.71-16.46,5.46-4,12.6-6,21.39-6,9.61,0,17.05,2.38,22.31,7.13,5.26,4.76,7.89,11.53,7.89,20.33v35.81c0,2.33.61,4.15,1.82,5.46,1.22,1.31,2.89,1.98,5.01,1.98h2.88v7.13ZM1407.76,258.49c-7.09,0-12.5,1.37-16.23,4.09-3.74,2.73-5.62,6.62-5.62,11.68,0,4.75,1.79,8.57,5.39,11.46,3.59,2.88,8.42,4.32,14.49,4.32,8.9,0,15.9-2.36,21.01-7.06,5.11-4.7,7.67-10.8,7.67-18.28v-6.22h-26.7Z"/>
        <rect class="cls-2" x="1462.27" y="189.61" width="7.73" height="106.2"/>
        <polygon class="cls-2" points="1590.35 189.61 1590.35 197.19 1533.15 197.19 1533.15 237.85 1581.09 237.85 1581.09 245.44 1533.15 245.44 1533.15 288.23 1592.32 288.23 1592.32 295.81 1524.95 295.81 1524.95 189.61 1590.35 189.61"/>
        <path class="cls-2" d="M1618.16,285.27c4.45,3.19,10.32,4.78,17.6,4.78,6.38,0,11.63-1.37,15.78-4.1,4.14-2.73,6.22-6.32,6.22-10.76,0-3.55-.99-6.3-2.96-8.27-1.98-1.97-4.53-3.39-7.67-4.25-3.13-.86-7.33-1.69-12.6-2.5-6.47-.91-11.73-1.95-15.78-3.11-4.05-1.16-7.38-3.11-10.01-5.84-2.63-2.74-3.95-6.53-3.95-11.38,0-4.24,1.24-8.04,3.72-11.38,2.48-3.33,5.87-5.94,10.17-7.81,4.3-1.87,9.18-2.8,14.64-2.8,8.81,0,15.95,1.95,21.47,5.84,5.51,3.89,8.62,9.53,9.33,16.91h-7.73c-.71-4.96-3.11-8.88-7.21-11.75-4.09-2.89-9.23-4.32-15.4-4.32s-11.53,1.37-15.48,4.09c-3.94,2.73-5.92,6.27-5.92,10.62,0,3.34.99,5.92,2.96,7.74,1.98,1.82,4.38,3.09,7.21,3.79,2.84.71,6.93,1.41,12.29,2.13,6.57.91,11.98,2.04,16.24,3.41,4.25,1.37,7.71,3.51,10.39,6.45,2.68,2.93,4.02,6.93,4.02,11.99,0,6.68-2.86,12.01-8.57,16-5.71,4-12.77,5.99-21.16,5.99-9.71,0-17.5-2.15-23.37-6.45-5.86-4.29-8.9-10.34-9.1-18.13h7.73c.3,5.57,2.68,9.94,7.14,13.12"/>
        <path class="cls-2" d="M1671.45,226.02v-7.13h14.57v-21.55h7.74v21.55h20.48v7.13h-20.48v51.74c0,3.95.81,6.75,2.43,8.42,1.62,1.67,4.34,2.51,8.19,2.51h11.23v7.13h-11.53c-6.47,0-11.1-1.41-13.89-4.25-2.78-2.83-4.17-7.38-4.17-13.65v-51.89h-14.57Z"/>
        <path class="cls-2" d="M1795.43,295.81h-4.55c-4.45,0-7.72-1.11-9.79-3.33-2.07-2.23-3.01-5.37-2.8-9.41v-3.18c-2.33,5.16-5.97,9.25-10.93,12.28-4.96,3.04-11.12,4.55-18.51,4.55-8.29,0-14.92-1.97-19.88-5.92-4.96-3.94-7.43-9.3-7.43-16.08,0-7.28,2.6-12.92,7.81-16.92,5.22-3.99,12.73-5.99,22.54-5.99h26.1v-6.68c0-6.37-2-11.35-5.99-14.94-4-3.59-9.59-5.39-16.77-5.39-6.37,0-11.55,1.42-15.54,4.25-4,2.83-6.5,6.62-7.51,11.38h-7.74c1.01-6.98,4.25-12.47,9.71-16.46,5.46-4,12.59-6,21.4-6,9.6,0,17.04,2.38,22.3,7.13,5.26,4.76,7.89,11.53,7.89,20.33v35.81c0,2.33.61,4.15,1.82,5.46,1.22,1.31,2.89,1.98,5.01,1.98h2.88v7.13ZM1751.29,258.49c-7.08,0-12.5,1.37-16.23,4.09-3.74,2.73-5.62,6.62-5.62,11.68,0,4.75,1.79,8.57,5.39,11.46,3.59,2.88,8.42,4.32,14.49,4.32,8.9,0,15.9-2.36,21.01-7.06,5.11-4.7,7.67-10.8,7.67-18.28v-6.22h-26.7Z"/>
        <path class="cls-2" d="M1796.39,226.02v-7.13h14.56v-21.55h7.74v21.55h20.48v7.13h-20.48v51.74c0,3.95.81,6.75,2.43,8.42,1.62,1.67,4.34,2.51,8.19,2.51h11.23v7.13h-11.53c-6.47,0-11.1-1.41-13.89-4.25-2.78-2.83-4.17-7.38-4.17-13.65v-51.89h-14.56Z"/>
        <path class="cls-2" d="M1863.25,222.91c5.42-3.28,11.55-4.93,18.44-4.93s12.79,1.45,18.05,4.32c5.25,2.89,9.43,7.06,12.51,12.52,3.09,5.46,4.73,11.93,4.93,19.42,0,1.41-.05,2.48-.15,3.19h-62.66c-.11.4-.16,1-.16,1.81.1,5.97,1.37,11.26,3.79,15.86,2.43,4.6,5.76,8.19,10.01,10.77,4.25,2.58,9.06,3.87,14.42,3.87,6.27,0,11.73-1.75,16.38-5.24,4.66-3.49,7.74-8.22,9.26-14.18h7.89c-1.82,7.89-5.69,14.26-11.61,19.11-5.92,4.85-13.02,7.28-21.32,7.28-7.18,0-13.58-1.66-19.19-5-5.61-3.34-9.96-7.99-13.05-13.96-3.08-5.97-4.63-12.79-4.63-20.48s1.49-14.52,4.48-20.48c2.98-5.97,7.18-10.59,12.59-13.88M1900.72,231.64c-4.9-4.55-11.2-6.82-18.89-6.82-4.65,0-8.95,1.09-12.89,3.26-3.95,2.17-7.18,5.23-9.71,9.18-2.53,3.95-4,8.49-4.41,13.66h54.32c-.71-8.29-3.51-14.72-8.43-19.27"/>
      </g>
      <g>
        <path class="cls-1" d="M121.61,238.88l-67.97-103.78,12.44-19.09h94.04L235.59,0h-67.27l-41.71,63.69h-55.29c-24.06,0-46.4,12.1-59.73,32.39-15.45,23.7-15.45,54.35,0,78.05l42.47,64.75h67.56Z"/>
        <path class="cls-3" d="M281.18,187.35l-42.22-65.01h-67.54l67.68,104-12.42,18.86h-93.79l-75.73,116.02h67.55l41.46-63.69h55.28c24.16,0,46.49-12.01,59.73-32.12v-.03c15.37-23.84,15.37-54.47.01-78.02"/>
      </g>
    </g>
  </g>
</svg>