<?xml version="1.0" encoding="UTF-8"?>
<svg id="Layer_1" data-name="Layer 1" xmlns="http://www.w3.org/2000/svg" viewBox="0 0 1920 1080">
  <g>
    <path d="M811.53,537.39c-2.85-1.16-6.28-2.1-10.21-2.79-3.79-.68-6.73-1.31-8.74-1.87-1.91-.53-3.44-1.33-4.56-2.37-1.05-.97-1.56-2.27-1.56-3.97,0-2.46.9-4.32,2.76-5.66,1.92-1.39,4.56-2.1,7.83-2.1s6.18.88,8.35,2.63c2.17,1.75,3.39,3.99,3.71,6.86l.09.8h11.42l-.04-.94c-.18-3.75-1.3-7.14-3.33-10.07-2.02-2.91-4.82-5.23-8.32-6.89-3.48-1.65-7.47-2.49-11.87-2.49s-8.14.78-11.47,2.31c-3.37,1.55-6.03,3.77-7.91,6.57-1.89,2.83-2.85,6.08-2.85,9.67,0,3.89.94,7.11,2.79,9.54,1.83,2.4,4.24,4.22,7.15,5.39,2.83,1.13,6.25,2.06,10.16,2.75,3.79.68,6.76,1.34,8.81,1.95,1.97.59,3.54,1.43,4.65,2.49,1.05,1.01,1.57,2.35,1.57,4.11,0,2.51-.98,4.42-3,5.82-2.09,1.46-4.91,2.2-8.36,2.2-3.94,0-7.17-1.01-9.59-3.01-2.42-2-3.74-4.59-4.01-7.91l-.07-.81-11.42-.2v.92c.08,4.09,1.18,7.79,3.29,10.98,2.1,3.18,5.07,5.69,8.8,7.47,3.7,1.77,8.04,2.66,12.9,2.66,4.4,0,8.39-.82,11.86-2.44,3.5-1.63,6.28-3.94,8.25-6.87,1.98-2.94,2.98-6.31,2.98-10.02s-.96-7-2.85-9.38c-1.86-2.34-4.29-4.13-7.22-5.33"/>
    <path d="M864.43,539.04c2.27-.93,4.13-2.26,5.55-3.97,2.04-2.47,3.08-5.65,3.08-9.44,0-5.19-1.95-9.29-5.8-12.2-3.77-2.85-9.1-4.3-15.83-4.3h-22.92v61.78h23.69c7.31,0,13.04-1.56,17.04-4.64,4.07-3.14,6.13-7.5,6.13-12.97,0-7.32-3.67-12.11-10.94-14.27M858.95,532.47c-1.68,1.4-4.13,2.11-7.27,2.11h-11.53v-15.44h11.53c3.15,0,5.6.7,7.28,2.07,1.65,1.35,2.46,3.18,2.46,5.61s-.81,4.28-2.46,5.66M863.46,552.79c0,2.53-.91,4.44-2.77,5.84-1.92,1.44-4.75,2.18-8.42,2.18h-12.13v-16.3h12.13c3.61,0,6.43.75,8.37,2.22,1.89,1.43,2.82,3.42,2.82,6.06"/>
    <path d="M925.81,540.19c2.21-3.17,3.33-6.88,3.33-11.05s-.92-7.52-2.74-10.53c-1.82-3.02-4.41-5.39-7.69-7.02-3.25-1.63-7.08-2.45-11.37-2.45h-24.55v61.78h11.64v-21.77h11.93l11.4,21.77h13l-12.91-24.34c3.26-1.35,5.94-3.5,7.96-6.39M917.24,529.14c0,2.96-.93,5.26-2.84,7.01-1.9,1.75-4.54,2.64-7.84,2.64h-12.13v-19.3h12.13c3.29,0,5.93.89,7.84,2.63,1.91,1.76,2.84,4.05,2.84,7.02"/>
    <polygon points="948.02 560.38 948.02 544.77 972.19 544.77 972.19 534.5 948.02 534.5 948.02 519.66 977.33 519.66 977.33 509.13 936.38 509.13 936.38 570.91 978.36 570.91 978.36 560.38 948.02 560.38"/>
    <path d="M996.15,533.44c1.48,1.23,3.41,1.85,5.77,1.85s4.1-.51,5.47-1.53c1.36-1.02,2.05-2.42,2.05-4.2,0-1.27-.36-2.28-1.09-3.02-.73-.74-1.66-1.29-2.8-1.65-1.14-.36-2.6-.68-4.37-.97-1.85-.32-3.41-.71-4.65-1.17-1.24-.46-2.28-1.18-3.1-2.15-.82-.97-1.23-2.29-1.23-3.96,0-1.54.38-2.89,1.15-4.05.77-1.17,1.86-2.07,3.28-2.7,1.42-.64,3.05-.96,4.91-.96,2.76,0,5,.72,6.74,2.17,1.74,1.44,2.71,3.36,2.92,5.74l-2.11.04c-.24-1.83-1.03-3.29-2.39-4.37-1.35-1.09-3.07-1.63-5.17-1.63-2.2,0-3.95.5-5.25,1.49-1.3.99-1.95,2.38-1.95,4.15,0,1.24.34,2.23,1.03,2.94.69.72,1.56,1.23,2.6,1.55,1.05.32,2.48.64,4.31.96,1.85.29,3.44.68,4.75,1.17,1.31.49,2.4,1.24,3.26,2.25.86,1.01,1.29,2.35,1.29,4.02,0,1.54-.4,2.9-1.21,4.1-.81,1.19-1.94,2.12-3.4,2.78-1.46.66-3.15.99-5.09.99s-3.78-.36-5.31-1.09c-1.52-.73-2.72-1.76-3.58-3.1-.86-1.34-1.33-2.88-1.41-4.63h2.15c.13,2.09.94,3.76,2.42,4.99"/>
    <path d="M1045.78,525.51v11.53h-2.07v-11.41c0-2.31-.49-4.07-1.47-5.29-.98-1.22-2.36-1.83-4.13-1.83-1.88,0-3.39.68-4.51,2.05-1.13,1.36-1.72,3.2-1.77,5.51v10.97h-2.03v-11.41c0-2.31-.5-4.07-1.49-5.29-.99-1.22-2.39-1.83-4.19-1.83-1.91,0-3.43.76-4.57,2.27-1.14,1.51-1.71,3.51-1.71,6v10.26h-1.99v-20.16h1.75l.32,4.33c.53-1.38,1.35-2.49,2.46-3.32,1.11-.83,2.48-1.25,4.09-1.25s3.01.43,4.18,1.29c1.17.86,1.99,2.11,2.46,3.76.61-1.56,1.52-2.8,2.74-3.7,1.22-.9,2.72-1.35,4.49-1.35,2.23,0,4.02.74,5.39,2.23,1.37,1.48,2.05,3.7,2.05,6.64"/>
    <path d="M1068.86,537.04h-1.19c-1.17,0-2.02-.29-2.57-.87-.54-.58-.79-1.41-.73-2.47v-.83c-.61,1.35-1.56,2.42-2.86,3.22-1.3.8-2.91,1.19-4.85,1.19-2.17,0-3.91-.52-5.21-1.55-1.3-1.03-1.95-2.44-1.95-4.21,0-1.91.68-3.39,2.05-4.43,1.37-1.05,3.33-1.57,5.91-1.57h6.84v-1.75c0-1.67-.52-2.97-1.57-3.92-1.05-.94-2.51-1.41-4.39-1.41-1.67,0-3.03.37-4.07,1.11-1.05.74-1.7,1.74-1.97,2.98h-2.03c.26-1.83,1.11-3.27,2.54-4.31,1.43-1.05,3.3-1.57,5.61-1.57,2.52,0,4.47.62,5.84,1.87,1.38,1.25,2.07,3.02,2.07,5.33v9.38c0,.61.16,1.09.48,1.43.32.34.76.52,1.31.52h.75v1.87ZM1057.29,527.26c-1.86,0-3.27.36-4.25,1.07-.98.72-1.47,1.74-1.47,3.06,0,1.25.47,2.25,1.41,3,.94.75,2.21,1.13,3.8,1.13,2.33,0,4.17-.62,5.51-1.85s2.01-2.83,2.01-4.79v-1.63h-7Z"/>
    <rect x="1071.57" y="509.21" width="2.03" height="27.83"/>
    <rect x="1078.37" y="509.21" width="2.03" height="27.83"/>
    <path d="M1110.74,511.08c1.51,1.24,2.27,2.98,2.27,5.21,0,1.7-.46,3.1-1.37,4.22-.91,1.11-2.22,1.85-3.92,2.23,2.07.34,3.68,1.07,4.83,2.17,1.15,1.1,1.73,2.63,1.73,4.59,0,2.36-.84,4.21-2.52,5.55-1.68,1.34-4.11,2.01-7.3,2.01h-9.66v-27.83h9.5c2.78,0,4.93.62,6.44,1.87M1104.38,521.85c2.07,0,3.67-.48,4.79-1.43,1.13-.96,1.69-2.27,1.69-3.94s-.56-2.97-1.69-3.91c-1.13-.94-2.72-1.41-4.79-1.41h-7.43v10.69h7.43ZM1104.46,535.09c2.46,0,4.35-.5,5.65-1.51,1.3-1.01,1.95-2.4,1.95-4.18s-.66-3.22-1.99-4.17c-1.32-.96-3.19-1.43-5.61-1.43h-7.51v11.29h7.51Z"/>
    <path d="M1135.45,537.04h-1.79l-.28-4.25c-.61,1.38-1.51,2.47-2.7,3.28-1.19.81-2.65,1.21-4.37,1.21-2.33,0-4.21-.76-5.63-2.29-1.42-1.52-2.13-3.8-2.13-6.82v-11.29h2.03v11.17c0,2.39.53,4.21,1.59,5.47,1.06,1.26,2.54,1.89,4.45,1.89,2.09,0,3.75-.78,4.97-2.33,1.22-1.55,1.83-3.65,1.83-6.3v-9.9h2.03v20.16Z"/>
    <path d="M1143.41,534.28c1.17.84,2.7,1.25,4.61,1.25,1.67,0,3.05-.36,4.13-1.07,1.09-.71,1.63-1.66,1.63-2.82,0-.93-.26-1.65-.78-2.17-.52-.52-1.19-.89-2.01-1.11-.82-.22-1.92-.44-3.3-.66-1.7-.24-3.07-.51-4.13-.82-1.06-.3-1.93-.81-2.62-1.53-.69-.72-1.03-1.71-1.03-2.98,0-1.11.33-2.11.97-2.98.65-.87,1.54-1.56,2.67-2.05,1.13-.49,2.4-.73,3.83-.73,2.31,0,4.18.51,5.63,1.53,1.44,1.02,2.26,2.5,2.44,4.43h-2.03c-.18-1.3-.81-2.33-1.89-3.08-1.07-.76-2.42-1.13-4.04-1.13s-3.02.36-4.06,1.07c-1.03.72-1.55,1.64-1.55,2.78,0,.88.26,1.55.78,2.03.52.48,1.15.81,1.89.99.74.19,1.82.37,3.22.56,1.72.24,3.14.54,4.25.89,1.11.36,2.02.92,2.72,1.69.7.77,1.05,1.82,1.05,3.14,0,1.75-.75,3.15-2.25,4.19-1.5,1.05-3.35,1.57-5.55,1.57-2.54,0-4.59-.56-6.12-1.69-1.54-1.13-2.33-2.71-2.38-4.75h2.03c.08,1.46.7,2.6,1.87,3.44"/>
    <path d="M1162.26,510.92c0,.42-.13.77-.4,1.03-.26.27-.61.4-1.03.4-.4,0-.74-.13-1.02-.4-.28-.27-.42-.61-.42-1.03s.14-.77.42-1.03c.28-.27.62-.4,1.02-.4.42,0,.77.13,1.03.4.26.27.4.61.4,1.03M1161.86,537.04h-2.03v-20.16h2.03v20.16Z"/>
    <path d="M1183.89,525.75v11.29h-2.03v-11.21c0-2.36-.55-4.17-1.65-5.43-1.1-1.26-2.63-1.89-4.59-1.89-2.15,0-3.84.78-5.09,2.33-1.25,1.55-1.87,3.64-1.87,6.26v9.94h-2.03v-20.16h1.75l.32,4.29c.61-1.38,1.52-2.48,2.74-3.3,1.22-.82,2.72-1.23,4.49-1.23,2.41,0,4.34.76,5.78,2.27,1.44,1.51,2.17,3.79,2.17,6.84"/>
    <path d="M1192.19,517.94c1.42-.86,3.03-1.29,4.83-1.29s3.35.38,4.73,1.13c1.38.76,2.47,1.85,3.28,3.28.81,1.43,1.24,3.13,1.29,5.09,0,.37-.01.65-.04.84h-16.42c-.03.11-.04.26-.04.48.03,1.56.36,2.95.99,4.15s1.51,2.15,2.62,2.82c1.11.68,2.37,1.01,3.78,1.01,1.64,0,3.07-.46,4.29-1.37,1.22-.91,2.03-2.15,2.43-3.72h2.07c-.48,2.07-1.49,3.74-3.04,5.01-1.55,1.27-3.41,1.91-5.59,1.91-1.88,0-3.56-.44-5.03-1.31-1.47-.88-2.61-2.09-3.42-3.66-.81-1.56-1.21-3.35-1.21-5.37s.39-3.8,1.17-5.37,1.88-2.78,3.3-3.64M1202.01,520.22c-1.29-1.19-2.93-1.79-4.95-1.79-1.22,0-2.35.29-3.38.85-1.03.57-1.88,1.37-2.54,2.4-.66,1.03-1.05,2.23-1.15,3.58h14.23c-.19-2.17-.92-3.86-2.21-5.05"/>
    <path d="M1213.57,534.28c1.17.84,2.7,1.25,4.61,1.25,1.67,0,3.05-.36,4.14-1.07,1.09-.71,1.63-1.66,1.63-2.82,0-.93-.26-1.65-.78-2.17-.52-.52-1.19-.89-2.01-1.11-.82-.22-1.92-.44-3.3-.66-1.7-.24-3.07-.51-4.13-.82-1.06-.3-1.93-.81-2.62-1.53-.69-.72-1.03-1.71-1.03-2.98,0-1.11.33-2.11.97-2.98.65-.87,1.54-1.56,2.66-2.05,1.13-.49,2.41-.73,3.84-.73,2.31,0,4.18.51,5.63,1.53,1.44,1.02,2.26,2.5,2.44,4.43h-2.03c-.19-1.3-.82-2.33-1.89-3.08-1.07-.76-2.42-1.13-4.04-1.13s-3.02.36-4.06,1.07c-1.03.72-1.55,1.64-1.55,2.78,0,.88.26,1.55.78,2.03.52.48,1.15.81,1.89.99.74.19,1.82.37,3.22.56,1.72.24,3.14.54,4.25.89,1.11.36,2.02.92,2.72,1.69.7.77,1.05,1.82,1.05,3.14,0,1.75-.75,3.15-2.25,4.19-1.5,1.05-3.35,1.57-5.55,1.57-2.54,0-4.59-.56-6.12-1.69-1.54-1.13-2.33-2.71-2.38-4.75h2.03c.08,1.46.7,2.6,1.87,3.44"/>
    <path d="M1232.79,534.28c1.17.84,2.7,1.25,4.61,1.25,1.67,0,3.05-.36,4.13-1.07,1.09-.71,1.63-1.66,1.63-2.82,0-.93-.26-1.65-.78-2.17-.52-.52-1.19-.89-2.01-1.11-.82-.22-1.92-.44-3.3-.66-1.7-.24-3.07-.51-4.13-.82-1.06-.3-1.93-.81-2.62-1.53-.69-.72-1.03-1.71-1.03-2.98,0-1.11.33-2.11.97-2.98.65-.87,1.54-1.56,2.67-2.05,1.13-.49,2.4-.73,3.83-.73,2.31,0,4.18.51,5.63,1.53,1.44,1.02,2.26,2.5,2.44,4.43h-2.03c-.18-1.3-.81-2.33-1.89-3.08-1.07-.76-2.42-1.13-4.04-1.13s-3.02.36-4.06,1.07c-1.03.72-1.55,1.64-1.55,2.78,0,.88.26,1.55.78,2.03.52.48,1.15.81,1.89.99.74.19,1.82.37,3.22.56,1.72.24,3.14.54,4.25.89,1.11.36,2.02.92,2.72,1.69.7.77,1.05,1.82,1.05,3.14,0,1.75-.75,3.15-2.25,4.19-1.5,1.05-3.35,1.57-5.55,1.57-2.54,0-4.59-.56-6.12-1.69-1.54-1.13-2.33-2.71-2.38-4.75h2.03c.08,1.46.7,2.6,1.87,3.44"/>
    <path d="M1009.23,544.56c1.59,1.47,2.39,3.44,2.39,5.9,0,2.04-.59,3.75-1.77,5.13-1.18,1.38-2.76,2.24-4.75,2.58l6.6,12.01h-2.42l-6.32-11.61h-8.23v11.61h-2.15v-27.83h10.3c2.65,0,4.77.74,6.36,2.21M1002.71,556.59c2.04,0,3.67-.56,4.89-1.67,1.22-1.11,1.83-2.6,1.83-4.45s-.6-3.34-1.81-4.45c-1.21-1.11-2.83-1.67-4.87-1.67h-8.03v12.25h7.99Z"/>
    <path d="M1018.45,551.08c1.42-.86,3.03-1.29,4.83-1.29s3.35.38,4.73,1.13c1.38.76,2.47,1.85,3.28,3.28.81,1.43,1.24,3.13,1.29,5.09,0,.37-.01.65-.04.84h-16.42c-.03.11-.04.26-.04.48.03,1.56.36,2.95.99,4.15s1.51,2.15,2.62,2.82c1.11.68,2.37,1.01,3.78,1.01,1.64,0,3.07-.46,4.29-1.37,1.22-.91,2.03-2.15,2.43-3.72h2.07c-.48,2.07-1.49,3.74-3.04,5.01-1.55,1.27-3.41,1.91-5.59,1.91-1.88,0-3.56-.44-5.03-1.31-1.47-.88-2.61-2.09-3.42-3.66-.81-1.56-1.21-3.35-1.21-5.37s.39-3.8,1.17-5.37,1.88-2.78,3.3-3.64M1028.27,553.37c-1.29-1.19-2.93-1.79-4.95-1.79-1.22,0-2.35.29-3.38.85-1.03.57-1.88,1.37-2.54,2.4-.66,1.03-1.05,2.23-1.15,3.58h14.23c-.19-2.17-.92-3.86-2.21-5.05"/>
    <path d="M1055.25,570.19h-1.19c-1.17,0-2.02-.29-2.57-.87-.54-.58-.79-1.41-.73-2.47v-.83c-.61,1.35-1.56,2.42-2.86,3.22-1.3.8-2.91,1.19-4.85,1.19-2.17,0-3.91-.52-5.21-1.55-1.3-1.03-1.95-2.44-1.95-4.21,0-1.91.68-3.39,2.05-4.43,1.37-1.05,3.33-1.57,5.91-1.57h6.84v-1.75c0-1.67-.52-2.97-1.57-3.92-1.05-.94-2.51-1.41-4.39-1.41-1.67,0-3.03.37-4.07,1.11-1.05.74-1.7,1.74-1.97,2.98h-2.03c.26-1.83,1.11-3.27,2.54-4.31,1.43-1.05,3.3-1.57,5.61-1.57,2.52,0,4.47.62,5.84,1.87,1.38,1.25,2.07,3.02,2.07,5.33v9.38c0,.61.16,1.09.48,1.43.32.34.76.52,1.31.52h.75v1.87ZM1043.69,560.41c-1.86,0-3.27.36-4.25,1.07-.98.72-1.47,1.74-1.47,3.06,0,1.25.47,2.25,1.41,3,.94.75,2.21,1.13,3.8,1.13,2.33,0,4.17-.62,5.51-1.85s2.01-2.83,2.01-4.79v-1.63h-7Z"/>
    <rect x="1057.97" y="542.36" width="2.03" height="27.83"/>
    <polygon points="1091.53 542.36 1091.53 544.35 1076.54 544.35 1076.54 555 1089.11 555 1089.11 556.99 1076.54 556.99 1076.54 568.2 1092.05 568.2 1092.05 570.19 1074.39 570.19 1074.39 542.36 1091.53 542.36"/>
    <path d="M1098.82,567.42c1.17.84,2.7,1.25,4.61,1.25,1.67,0,3.05-.36,4.14-1.07,1.09-.71,1.63-1.66,1.63-2.82,0-.93-.26-1.65-.78-2.17-.52-.52-1.19-.89-2.01-1.11-.82-.22-1.92-.44-3.3-.66-1.7-.24-3.07-.51-4.13-.82-1.06-.3-1.93-.81-2.62-1.53-.69-.72-1.03-1.71-1.03-2.98,0-1.11.33-2.11.97-2.98.65-.87,1.54-1.56,2.66-2.05,1.13-.49,2.41-.73,3.84-.73,2.31,0,4.18.51,5.63,1.53,1.44,1.02,2.26,2.5,2.44,4.43h-2.03c-.19-1.3-.82-2.33-1.89-3.08-1.07-.76-2.42-1.13-4.04-1.13s-3.02.36-4.06,1.07c-1.03.72-1.55,1.64-1.55,2.78,0,.88.26,1.55.78,2.03.52.48,1.15.81,1.89.99.74.19,1.82.37,3.22.56,1.72.24,3.14.54,4.25.89,1.11.36,2.02.92,2.72,1.69.7.77,1.05,1.82,1.05,3.14,0,1.75-.75,3.15-2.25,4.19-1.5,1.05-3.35,1.57-5.55,1.57-2.54,0-4.59-.56-6.12-1.69-1.54-1.13-2.33-2.71-2.38-4.75h2.03c.08,1.46.7,2.6,1.87,3.44"/>
    <path d="M1112.78,551.9v-1.87h3.82v-5.65h2.03v5.65h5.37v1.87h-5.37v13.56c0,1.03.21,1.77.64,2.21.42.44,1.14.66,2.15.66h2.94v1.87h-3.02c-1.7,0-2.91-.37-3.64-1.11-.73-.74-1.09-1.93-1.09-3.58v-13.6h-3.82Z"/>
    <path d="M1145.27,570.19h-1.19c-1.17,0-2.02-.29-2.57-.87-.54-.58-.79-1.41-.73-2.47v-.83c-.61,1.35-1.56,2.42-2.86,3.22-1.3.8-2.91,1.19-4.85,1.19-2.17,0-3.91-.52-5.21-1.55-1.3-1.03-1.95-2.44-1.95-4.21,0-1.91.68-3.39,2.05-4.43,1.37-1.05,3.33-1.57,5.91-1.57h6.84v-1.75c0-1.67-.52-2.97-1.57-3.92-1.05-.94-2.51-1.41-4.39-1.41-1.67,0-3.03.37-4.07,1.11-1.05.74-1.7,1.74-1.97,2.98h-2.03c.26-1.83,1.11-3.27,2.54-4.31,1.43-1.05,3.3-1.57,5.61-1.57,2.52,0,4.47.62,5.84,1.87,1.38,1.25,2.07,3.02,2.07,5.33v9.38c0,.61.16,1.09.48,1.43.32.34.76.52,1.31.52h.75v1.87ZM1133.7,560.41c-1.86,0-3.27.36-4.25,1.07-.98.72-1.47,1.74-1.47,3.06,0,1.25.47,2.25,1.41,3,.94.75,2.21,1.13,3.8,1.13,2.33,0,4.17-.62,5.51-1.85s2.01-2.83,2.01-4.79v-1.63h-7Z"/>
    <path d="M1145.52,551.9v-1.87h3.82v-5.65h2.03v5.65h5.37v1.87h-5.37v13.56c0,1.03.21,1.77.64,2.21.42.44,1.14.66,2.15.66h2.94v1.87h-3.02c-1.7,0-2.91-.37-3.64-1.11-.73-.74-1.09-1.93-1.09-3.58v-13.6h-3.82Z"/>
    <path d="M1163.04,551.08c1.42-.86,3.03-1.29,4.83-1.29s3.35.38,4.73,1.13c1.38.76,2.47,1.85,3.28,3.28.81,1.43,1.24,3.13,1.29,5.09,0,.37-.01.65-.04.84h-16.42c-.03.11-.04.26-.04.48.03,1.56.36,2.95.99,4.15s1.51,2.15,2.62,2.82c1.11.68,2.37,1.01,3.78,1.01,1.64,0,3.07-.46,4.29-1.37,1.22-.91,2.03-2.15,2.43-3.72h2.07c-.48,2.07-1.49,3.74-3.04,5.01-1.55,1.27-3.41,1.91-5.59,1.91-1.88,0-3.56-.44-5.03-1.31-1.47-.88-2.61-2.09-3.42-3.66-.81-1.56-1.21-3.35-1.21-5.37s.39-3.8,1.17-5.37,1.88-2.78,3.3-3.64M1172.86,553.37c-1.29-1.19-2.93-1.79-4.95-1.79-1.22,0-2.35.29-3.38.85-1.03.57-1.88,1.37-2.54,2.4-.66,1.03-1.05,2.23-1.15,3.58h14.23c-.19-2.17-.92-3.86-2.21-5.05"/>
  </g>
  <g>
    <path d="M706.67,555.27l-17.81-27.19,3.26-5h24.64l19.77-30.4h-17.63l-10.93,16.69h-14.49c-6.31,0-12.16,3.17-15.65,8.49-4.05,6.21-4.05,14.24,0,20.45l11.13,16.97h17.7Z"/>
    <path d="M748.49,541.77l-11.06-17.04h-17.7l17.73,27.25-3.26,4.94h-24.58l-19.84,30.4h17.7l10.86-16.69h14.48c6.33,0,12.18-3.15,15.65-8.42h0c4.02-6.25,4.02-14.28,0-20.45"/>
  </g>
</svg>